<svg class="rich-terminal" viewBox="0 0 1238 879.5999999999999" xmlns="http://www.w3.org/2000/svg">
    <!-- Generated with Rich https://www.textualize.io -->
    <style>

    @font-face {
        font-family: "Fira Code";
        src: local("FiraCode-Regular"),
                url("https://cdnjs.cloudflare.com/ajax/libs/firacode/6.2.0/woff2/FiraCode-Regular.woff2") format("woff2"),
                url("https://cdnjs.cloudflare.com/ajax/libs/firacode/6.2.0/woff/FiraCode-Regular.woff") format("woff");
        font-style: normal;
        font-weight: 400;
    }
    @font-face {
        font-family: "Fira Code";
        src: local("FiraCode-Bold"),
                url("https://cdnjs.cloudflare.com/ajax/libs/firacode/6.2.0/woff2/FiraCode-Bold.woff2") format("woff2"),
                url("https://cdnjs.cloudflare.com/ajax/libs/firacode/6.2.0/woff/FiraCode-Bold.woff") format("woff");
        font-style: bold;
        font-weight: 700;
    }

    .terminal-01-jogador-matrix {
        font-family: Fira Code, monospace;
        font-size: 20px;
        line-height: 24.4px;
        font-variant-east-asian: full-width;
    }

    .terminal-01-jogador-title {
        font-size: 18px;
        font-weight: bold;
        font-family: arial;
    }

    .terminal-01-jogador-r1 { fill: #c5c8c6 }
.terminal-01-jogador-r2 { fill: #fea62b;font-weight: bold }
.terminal-01-jogador-r3 { fill: #a0a0a0 }
.terminal-01-jogador-r4 { fill: #e0e0e0 }
.terminal-01-jogador-r5 { fill: #121212 }
.terminal-01-jogador-r6 { fill: #0178d4 }
.terminal-01-jogador-r7 { fill: #ff0000 }
.terminal-01-jogador-r8 { fill: #6db2ff }
.terminal-01-jogador-r9 { fill: #ddedf9;font-weight: bold }
.terminal-01-jogador-r10 { fill: #004295 }
.terminal-01-jogador-r11 { fill: #00ffff;font-weight: bold }
.terminal-01-jogador-r12 { fill: #a0a3a6 }
.terminal-01-jogador-r13 { fill: #00ffff }
.terminal-01-jogador-r14 { fill: #e0e0e0;font-weight: bold }
.terminal-01-jogador-r15 { fill: #495259 }
.terminal-01-jogador-r16 { fill: #ffa62b;font-weight: bold }
    </style>

    <defs>
    <clipPath id="terminal-01-jogador-clip-terminal">
      <rect x="0" y="0" width="1219.0" height="828.5999999999999" />
    </clipPath>
    <clipPath id="terminal-01-jogador-line-0">
    <rect x="0" y="1.5" width="1220" height="24.65"/>
            </clipPath>
<clipPath id="terminal-01-jogador-line-1">
    <rect x="0" y="25.9" width="1220" height="24.65"/>
            </clipPath>
<clipPath id="terminal-01-jogador-line-2">
    <rect x="0" y="50.3" width="1220" height="24.65"/>
            </clipPath>
<clipPath id="terminal-01-jogador-line-3">
    <rect x="0" y="74.7" width="1220" height="24.65"/>
            </clipPath>
<clipPath id="terminal-01-jogador-line-4">
    <rect x="0" y="99.1" width="1220" height="24.65"/>
            </clipPath>
<clipPath id="terminal-01-jogador-line-5">
    <rect x="0" y="123.5" width="1220" height="24.65"/>
            </clipPath>
<clipPath id="terminal-01-jogador-line-6">
    <rect x="0" y="147.9" width="1220" height="24.65"/>
            </clipPath>
<clipPath id="terminal-01-jogador-line-7">
    <rect x="0" y="172.3" width="1220" height="24.65"/>
            </clipPath>
<clipPath id="terminal-01-jogador-line-8">
    <rect x="0" y="196.7" width="1220" height="24.65"/>
            </clipPath>
<clipPath id="terminal-01-jogador-line-9">
    <rect x="0" y="221.1" width="1220" height="24.65"/>
            </clipPath>
<clipPath id="terminal-01-jogador-line-10">
    <rect x="0" y="245.5" width="1220" height="24.65"/>
            </clipPath>
<clipPath id="terminal-01-jogador-line-11">
    <rect x="0" y="269.9" width="1220" height="24.65"/>
            </clipPath>
<clipPath id="terminal-01-jogador-line-12">
    <rect x="0" y="294.3" width="1220" height="24.65"/>
            </clipPath>
<clipPath id="terminal-01-jogador-line-13">
    <rect x="0" y="318.7" width="1220" height="24.65"/>
            </clipPath>
<clipPath id="terminal-01-jogador-line-14">
    <rect x="0" y="343.1" width="1220" height="24.65"/>
            </clipPath>
<clipPath id="terminal-01-jogador-line-15">
    <rect x="0" y="367.5" width="1220" height="24.65"/>
            </clipPath>
<clipPath id="terminal-01-jogador-line-16">
    <rect x="0" y="391.9" width="1220" height="24.65"/>
            </clipPath>
<clipPath id="terminal-01-jogador-line-17">
    <rect x="0" y="416.3" width="1220" height="24.65"/>
            </clipPath>
<clipPath id="terminal-01-jogador-line-18">
    <rect x="0" y="440.7" width="1220" height="24.65"/>
            </clipPath>
<clipPath id="terminal-01-jogador-line-19">
    <rect x="0" y="465.1" width="1220" height="24.65"/>
            </clipPath>
<clipPath id="terminal-01-jogador-line-20">
    <rect x="0" y="489.5" width="1220" height="24.65"/>
            </clipPath>
<clipPath id="terminal-01-jogador-line-21">
    <rect x="0" y="513.9" width="1220" height="24.65"/>
            </clipPath>
<clipPath id="terminal-01-jogador-line-22">
    <rect x="0" y="538.3" width="1220" height="24.65"/>
            </clipPath>
<clipPath id="terminal-01-jogador-line-23">
    <rect x="0" y="562.7" width="1220" height="24.65"/>
            </clipPath>
<clipPath id="terminal-01-jogador-line-24">
    <rect x="0" y="587.1" width="1220" height="24.65"/>
            </clipPath>
<clipPath id="terminal-01-jogador-line-25">
    <rect x="0" y="611.5" width="1220" height="24.65"/>
            </clipPath>
<clipPath id="terminal-01-jogador-line-26">
    <rect x="0" y="635.9" width="1220" height="24.65"/>
            </clipPath>
<clipPath id="terminal-01-jogador-line-27">
    <rect x="0" y="660.3" width="1220" height="24.65"/>
            </clipPath>
<clipPath id="terminal-01-jogador-line-28">
    <rect x="0" y="684.7" width="1220" height="24.65"/>
            </clipPath>
<clipPath id="terminal-01-jogador-line-29">
    <rect x="0" y="709.1" width="1220" height="24.65"/>
            </clipPath>
<clipPath id="terminal-01-jogador-line-30">
    <rect x="0" y="733.5" width="1220" height="24.65"/>
            </clipPath>
<clipPath id="terminal-01-jogador-line-31">
    <rect x="0" y="757.9" width="1220" height="24.65"/>
            </clipPath>
<clipPath id="terminal-01-jogador-line-32">
    <rect x="0" y="782.3" width="1220" height="24.65"/>
            </clipPath>
    </defs>

    <rect fill="#292929" stroke="rgba(255,255,255,0.35)" stroke-width="1" x="1" y="1" width="1236" height="877.6" rx="8"/><text class="terminal-01-jogador-title" fill="#c5c8c6" text-anchor="middle" x="618" y="27">CS2&#160;Tracker</text>
            <g transform="translate(26,22)">
            <circle cx="0" cy="0" r="7" fill="#ff5f57"/>
            <circle cx="22" cy="0" r="7" fill="#febc2e"/>
            <circle cx="44" cy="0" r="7" fill="#28c840"/>
            </g>
        
    <g transform="translate(9, 41)" clip-path="url(#terminal-01-jogador-clip-terminal)">
    <rect fill="#121212" x="0" y="1.5" width="24.4" height="24.65" shape-rendering="crispEdges"/><rect fill="#121212" x="24.4" y="1.5" width="1012.6" height="24.65" shape-rendering="crispEdges"/><rect fill="#121212" x="1037" y="1.5" width="158.6" height="24.65" shape-rendering="crispEdges"/><rect fill="#121212" x="1195.6" y="1.5" width="24.4" height="24.65" shape-rendering="crispEdges"/><rect fill="#121212" x="0" y="25.9" width="24.4" height="24.65" shape-rendering="crispEdges"/><rect fill="#121212" x="24.4" y="25.9" width="1012.6" height="24.65" shape-rendering="crispEdges"/><rect fill="#121212" x="1037" y="25.9" width="158.6" height="24.65" shape-rendering="crispEdges"/><rect fill="#121212" x="1195.6" y="25.9" width="24.4" height="24.65" shape-rendering="crispEdges"/><rect fill="#121212" x="0" y="50.3" width="24.4" height="24.65" shape-rendering="crispEdges"/><rect fill="#121212" x="24.4" y="50.3" width="1012.6" height="24.65" shape-rendering="crispEdges"/><rect fill="#121212" x="1037" y="50.3" width="158.6" height="24.65" shape-rendering="crispEdges"/><rect fill="#121212" x="1195.6" y="50.3" width="24.4" height="24.65" shape-rendering="crispEdges"/><rect fill="#121212" x="0" y="74.7" width="24.4" height="24.65" shape-rendering="crispEdges"/><rect fill="#121212" x="24.4" y="74.7" width="1012.6" height="24.65" shape-rendering="crispEdges"/><rect fill="#121212" x="1037" y="74.7" width="158.6" height="24.65" shape-rendering="crispEdges"/><rect fill="#121212" x="1195.6" y="74.7" width="24.4" height="24.65" shape-rendering="crispEdges"/><rect fill="#121212" x="0" y="99.1" width="24.4" height="24.65" shape-rendering="crispEdges"/><rect fill="#121212" x="24.4" y="99.1" width="1012.6" height="24.65" shape-rendering="crispEdges"/><rect fill="#121212" x="1037" y="99.1" width="158.6" height="24.65" shape-rendering="crispEdges"/><rect fill="#121212" x="1195.6" y="99.1" width="24.4" height="24.65" shape-rendering="crispEdges"/><rect fill="#121212" x="0" y="123.5" width="24.4" height="24.65" shape-rendering="crispEdges"/><rect fill="#121212" x="24.4" y="123.5" width="1012.6" height="24.65" shape-rendering="crispEdges"/><rect fill="#121212" x="1037" y="123.5" width="158.6" height="24.65" shape-rendering="crispEdges"/><rect fill="#121212" x="1195.6" y="123.5" width="24.4" height="24.65" shape-rendering="crispEdges"/><rect fill="#121212" x="0" y="147.9" width="1220" height="24.65" shape-rendering="crispEdges"/><rect fill="#121212" x="0" y="172.3" width="24.4" height="24.65" shape-rendering="crispEdges"/><rect fill="#121212" x="24.4" y="172.3" width="1159" height="24.65" shape-rendering="crispEdges"/><rect fill="#121212" x="1183.4" y="172.3" width="12.2" height="24.65" shape-rendering="crispEdges"/><rect fill="#121212" x="1195.6" y="172.3" width="24.4" height="24.65" shape-rendering="crispEdges"/><rect fill="#121212" x="0" y="196.7" width="24.4" height="24.65" shape-rendering="crispEdges"/><rect fill="#121212" x="24.4" y="196.7" width="744.2" height="24.65" shape-rendering="crispEdges"/><rect fill="#121212" x="768.6" y="196.7" width="427" height="24.65" shape-rendering="crispEdges"/><rect fill="#121212" x="1195.6" y="196.7" width="24.4" height="24.65" shape-rendering="crispEdges"/><rect fill="#121212" x="0" y="221.1" width="24.4" height="24.65" shape-rendering="crispEdges"/><rect fill="#121212" x="24.4" y="221.1" width="0" height="24.65" shape-rendering="crispEdges"/><rect fill="#121212" x="24.4" y="221.1" width="1171.2" height="24.65" shape-rendering="crispEdges"/><rect fill="#121212" x="1195.6" y="221.1" width="24.4" height="24.65" shape-rendering="crispEdges"/><rect fill="#121212" x="0" y="245.5" width="24.4" height="24.65" shape-rendering="crispEdges"/><rect fill="#121212" x="24.4" y="245.5" width="1085.8" height="24.65" shape-rendering="crispEdges"/><rect fill="#121212" x="1110.2" y="245.5" width="85.4" height="24.65" shape-rendering="crispEdges"/><rect fill="#121212" x="1195.6" y="245.5" width="24.4" height="24.65" shape-rendering="crispEdges"/><rect fill="#121212" x="0" y="269.9" width="24.4" height="24.65" shape-rendering="crispEdges"/><rect fill="#121212" x="24.4" y="269.9" width="671" height="24.65" shape-rendering="crispEdges"/><rect fill="#121212" x="695.4" y="269.9" width="500.2" height="24.65" shape-rendering="crispEdges"/><rect fill="#121212" x="1195.6" y="269.9" width="24.4" height="24.65" shape-rendering="crispEdges"/><rect fill="#121212" x="0" y="294.3" width="24.4" height="24.65" shape-rendering="crispEdges"/><rect fill="#121212" x="24.4" y="294.3" width="0" height="24.65" shape-rendering="crispEdges"/><rect fill="#121212" x="24.4" y="294.3" width="1171.2" height="24.65" shape-rendering="crispEdges"/><rect fill="#121212" x="1195.6" y="294.3" width="24.4" height="24.65" shape-rendering="crispEdges"/><rect fill="#121212" x="0" y="318.7" width="24.4" height="24.65" shape-rendering="crispEdges"/><rect fill="#121212" x="24.4" y="318.7" width="1171.2" height="24.65" shape-rendering="crispEdges"/><rect fill="#121212" x="1195.6" y="318.7" width="24.4" height="24.65" shape-rendering="crispEdges"/><rect fill="#121212" x="0" y="343.1" width="24.4" height="24.65" shape-rendering="crispEdges"/><rect fill="#121212" x="24.4" y="343.1" width="158.6" height="24.65" shape-rendering="crispEdges"/><rect fill="#121212" x="183" y="343.1" width="1012.6" height="24.65" shape-rendering="crispEdges"/><rect fill="#121212" x="1195.6" y="343.1" width="24.4" height="24.65" shape-rendering="crispEdges"/><rect fill="#121212" x="0" y="367.5" width="24.4" height="24.65" shape-rendering="crispEdges"/><rect fill="#121212" x="24.4" y="367.5" width="1171.2" height="24.65" shape-rendering="crispEdges"/><rect fill="#121212" x="1195.6" y="367.5" width="24.4" height="24.65" shape-rendering="crispEdges"/><rect fill="#121212" x="0" y="391.9" width="24.4" height="24.65" shape-rendering="crispEdges"/><rect fill="#121212" x="24.4" y="391.9" width="317.2" height="24.65" shape-rendering="crispEdges"/><rect fill="#121212" x="341.6" y="391.9" width="854" height="24.65" shape-rendering="crispEdges"/><rect fill="#121212" x="1195.6" y="391.9" width="24.4" height="24.65" shape-rendering="crispEdges"/><rect fill="#121212" x="0" y="416.3" width="24.4" height="24.65" shape-rendering="crispEdges"/><rect fill="#0178d4" x="24.4" y="416.3" width="12.2" height="24.65" shape-rendering="crispEdges"/><rect fill="#272727" x="36.6" y="416.3" width="1146.8" height="24.65" shape-rendering="crispEdges"/><rect fill="#121212" x="1183.4" y="416.3" width="12.2" height="24.65" shape-rendering="crispEdges"/><rect fill="#121212" x="1195.6" y="416.3" width="24.4" height="24.65" shape-rendering="crispEdges"/><rect fill="#121212" x="0" y="440.7" width="24.4" height="24.65" shape-rendering="crispEdges"/><rect fill="#0178d4" x="24.4" y="440.7" width="12.2" height="24.65" shape-rendering="crispEdges"/><rect fill="#272727" x="36.6" y="440.7" width="24.4" height="24.65" shape-rendering="crispEdges"/><rect fill="#272727" x="61" y="440.7" width="73.2" height="24.65" shape-rendering="crispEdges"/><rect fill="#e0e0e0" x="134.2" y="440.7" width="12.2" height="24.65" shape-rendering="crispEdges"/><rect fill="#272727" x="146.4" y="440.7" width="1012.6" height="24.65" shape-rendering="crispEdges"/><rect fill="#272727" x="1159" y="440.7" width="24.4" height="24.65" shape-rendering="crispEdges"/><rect fill="#121212" x="1183.4" y="440.7" width="12.2" height="24.65" shape-rendering="crispEdges"/><rect fill="#121212" x="1195.6" y="440.7" width="24.4" height="24.65" shape-rendering="crispEdges"/><rect fill="#121212" x="0" y="465.1" width="24.4" height="24.65" shape-rendering="crispEdges"/><rect fill="#0178d4" x="24.4" y="465.1" width="12.2" height="24.65" shape-rendering="crispEdges"/><rect fill="#272727" x="36.6" y="465.1" width="1146.8" height="24.65" shape-rendering="crispEdges"/><rect fill="#121212" x="1183.4" y="465.1" width="12.2" height="24.65" shape-rendering="crispEdges"/><rect fill="#121212" x="1195.6" y="465.1" width="24.4" height="24.65" shape-rendering="crispEdges"/><rect fill="#121212" x="0" y="489.5" width="24.4" height="24.65" shape-rendering="crispEdges"/><rect fill="#121212" x="24.4" y="489.5" width="0" height="24.65" shape-rendering="crispEdges"/><rect fill="#121212" x="24.4" y="489.5" width="1171.2" height="24.65" shape-rendering="crispEdges"/><rect fill="#121212" x="1195.6" y="489.5" width="24.4" height="24.65" shape-rendering="crispEdges"/><rect fill="#121212" x="0" y="513.9" width="24.4" height="24.65" shape-rendering="crispEdges"/><rect fill="#121212" x="24.4" y="513.9" width="1171.2" height="24.65" shape-rendering="crispEdges"/><rect fill="#121212" x="1195.6" y="513.9" width="24.4" height="24.65" shape-rendering="crispEdges"/><rect fill="#121212" x="0" y="538.3" width="24.4" height="24.65" shape-rendering="crispEdges"/><rect fill="#0178d4" x="24.4" y="538.3" width="195.2" height="24.65" shape-rendering="crispEdges"/><rect fill="#121212" x="219.6" y="538.3" width="976" height="24.65" shape-rendering="crispEdges"/><rect fill="#121212" x="1195.6" y="538.3" width="24.4" height="24.65" shape-rendering="crispEdges"/><rect fill="#121212" x="0" y="562.7" width="24.4" height="24.65" shape-rendering="crispEdges"/><rect fill="#0178d4" x="24.4" y="562.7" width="24.4" height="24.65" shape-rendering="crispEdges"/><rect fill="#0178d4" x="48.8" y="562.7" width="134.2" height="24.65" shape-rendering="crispEdges"/><rect fill="#0178d4" x="183" y="562.7" width="36.6" height="24.65" shape-rendering="crispEdges"/><rect fill="#121212" x="219.6" y="562.7" width="976" height="24.65" shape-rendering="crispEdges"/><rect fill="#121212" x="1195.6" y="562.7" width="24.4" height="24.65" shape-rendering="crispEdges"/><rect fill="#121212" x="0" y="587.1" width="24.4" height="24.65" shape-rendering="crispEdges"/><rect fill="#0178d4" x="24.4" y="587.1" width="195.2" height="24.65" shape-rendering="crispEdges"/><rect fill="#121212" x="219.6" y="587.1" width="976" height="24.65" shape-rendering="crispEdges"/><rect fill="#121212" x="1195.6" y="587.1" width="24.4" height="24.65" shape-rendering="crispEdges"/><rect fill="#121212" x="0" y="611.5" width="24.4" height="24.65" shape-rendering="crispEdges"/><rect fill="#121212" x="24.4" y="611.5" width="1171.2" height="24.65" shape-rendering="crispEdges"/><rect fill="#121212" x="1195.6" y="611.5" width="24.4" height="24.65" shape-rendering="crispEdges"/><rect fill="#121212" x="0" y="635.9" width="24.4" height="24.65" shape-rendering="crispEdges"/><rect fill="#121212" x="24.4" y="635.9" width="1171.2" height="24.65" shape-rendering="crispEdges"/><rect fill="#121212" x="1195.6" y="635.9" width="24.4" height="24.65" shape-rendering="crispEdges"/><rect fill="#121212" x="0" y="660.3" width="24.4" height="24.65" shape-rendering="crispEdges"/><rect fill="#121212" x="24.4" y="660.3" width="1171.2" height="24.65" shape-rendering="crispEdges"/><rect fill="#121212" x="1195.6" y="660.3" width="24.4" height="24.65" shape-rendering="crispEdges"/><rect fill="#121212" x="0" y="684.7" width="24.4" height="24.65" shape-rendering="crispEdges"/><rect fill="#121212" x="24.4" y="684.7" width="1171.2" height="24.65" shape-rendering="crispEdges"/><rect fill="#121212" x="1195.6" y="684.7" width="24.4" height="24.65" shape-rendering="crispEdges"/><rect fill="#121212" x="0" y="709.1" width="24.4" height="24.65" shape-rendering="crispEdges"/><rect fill="#121212" x="24.4" y="709.1" width="1171.2" height="24.65" shape-rendering="crispEdges"/><rect fill="#121212" x="1195.6" y="709.1" width="24.4" height="24.65" shape-rendering="crispEdges"/><rect fill="#121212" x="0" y="733.5" width="1220" height="24.65" shape-rendering="crispEdges"/><rect fill="#242f38" x="0" y="757.9" width="24.4" height="24.65" shape-rendering="crispEdges"/><rect fill="#242f38" x="24.4" y="757.9" width="85.4" height="24.65" shape-rendering="crispEdges"/><rect fill="#242f38" x="109.8" y="757.9" width="12.2" height="24.65" shape-rendering="crispEdges"/><rect fill="#242f38" x="122" y="757.9" width="12.2" height="24.65" shape-rendering="crispEdges"/><rect fill="#242f38" x="134.2" y="757.9" width="12.2" height="24.65" shape-rendering="crispEdges"/><rect fill="#242f38" x="146.4" y="757.9" width="85.4" height="24.65" shape-rendering="crispEdges"/><rect fill="#242f38" x="231.8" y="757.9" width="12.2" height="24.65" shape-rendering="crispEdges"/><rect fill="#242f38" x="244" y="757.9" width="12.2" height="24.65" shape-rendering="crispEdges"/><rect fill="#242f38" x="256.2" y="757.9" width="12.2" height="24.65" shape-rendering="crispEdges"/><rect fill="#242f38" x="268.4" y="757.9" width="61" height="24.65" shape-rendering="crispEdges"/><rect fill="#242f38" x="329.4" y="757.9" width="12.2" height="24.65" shape-rendering="crispEdges"/><rect fill="#242f38" x="341.6" y="757.9" width="12.2" height="24.65" shape-rendering="crispEdges"/><rect fill="#242f38" x="353.8" y="757.9" width="12.2" height="24.65" shape-rendering="crispEdges"/><rect fill="#242f38" x="366" y="757.9" width="61" height="24.65" shape-rendering="crispEdges"/><rect fill="#242f38" x="427" y="757.9" width="12.2" height="24.65" shape-rendering="crispEdges"/><rect fill="#242f38" x="439.2" y="757.9" width="12.2" height="24.65" shape-rendering="crispEdges"/><rect fill="#242f38" x="451.4" y="757.9" width="12.2" height="24.65" shape-rendering="crispEdges"/><rect fill="#242f38" x="463.6" y="757.9" width="73.2" height="24.65" shape-rendering="crispEdges"/><rect fill="#242f38" x="536.8" y="757.9" width="12.2" height="24.65" shape-rendering="crispEdges"/><rect fill="#242f38" x="549" y="757.9" width="12.2" height="24.65" shape-rendering="crispEdges"/><rect fill="#242f38" x="561.2" y="757.9" width="12.2" height="24.65" shape-rendering="crispEdges"/><rect fill="#242f38" x="573.4" y="757.9" width="85.4" height="24.65" shape-rendering="crispEdges"/><rect fill="#242f38" x="658.8" y="757.9" width="536.8" height="24.65" shape-rendering="crispEdges"/><rect fill="#242f38" x="1195.6" y="757.9" width="24.4" height="24.65" shape-rendering="crispEdges"/><rect fill="#242f38" x="0" y="782.3" width="24.4" height="24.65" shape-rendering="crispEdges"/><rect fill="#242f38" x="24.4" y="782.3" width="292.8" height="24.65" shape-rendering="crispEdges"/><rect fill="#242f38" x="317.2" y="782.3" width="12.2" height="24.65" shape-rendering="crispEdges"/><rect fill="#242f38" x="329.4" y="782.3" width="109.8" height="24.65" shape-rendering="crispEdges"/><rect fill="#242f38" x="439.2" y="782.3" width="12.2" height="24.65" shape-rendering="crispEdges"/><rect fill="#242f38" x="451.4" y="782.3" width="12.2" height="24.65" shape-rendering="crispEdges"/><rect fill="#242f38" x="463.6" y="782.3" width="97.6" height="24.65" shape-rendering="crispEdges"/><rect fill="#242f38" x="561.2" y="782.3" width="634.4" height="24.65" shape-rendering="crispEdges"/><rect fill="#242f38" x="1195.6" y="782.3" width="24.4" height="24.65" shape-rendering="crispEdges"/><rect fill="#242f38" x="0" y="806.7" width="1073.6" height="24.65" shape-rendering="crispEdges"/><rect fill="#242f38" x="1073.6" y="806.7" width="12.2" height="24.65" shape-rendering="crispEdges"/><rect fill="#242f38" x="1085.8" y="806.7" width="24.4" height="24.65" shape-rendering="crispEdges"/><rect fill="#242f38" x="1110.2" y="806.7" width="97.6" height="24.65" shape-rendering="crispEdges"/><rect fill="#242f38" x="1207.8" y="806.7" width="12.2" height="24.65" shape-rendering="crispEdges"/>
    <g class="terminal-01-jogador-matrix">
    <text class="terminal-01-jogador-r2" x="24.4" y="20" textLength="1012.6" clip-path="url(#terminal-01-jogador-line-0)">&#160;██████╗███████╗██████╗&#160;&#160;&#160;████████╗██████╗&#160;&#160;█████╗&#160;&#160;██████╗██╗&#160;&#160;██╗███████╗██████╗&#160;</text><text class="terminal-01-jogador-r1" x="1220" y="20" textLength="12.2" clip-path="url(#terminal-01-jogador-line-0)">
</text><text class="terminal-01-jogador-r2" x="24.4" y="44.4" textLength="1012.6" clip-path="url(#terminal-01-jogador-line-1)">██╔════╝██╔════╝╚════██╗&#160;&#160;╚══██╔══╝██╔══██╗██╔══██╗██╔════╝██║&#160;██╔╝██╔════╝██╔══██╗</text><text class="terminal-01-jogador-r1" x="1220" y="44.4" textLength="12.2" clip-path="url(#terminal-01-jogador-line-1)">
</text><text class="terminal-01-jogador-r2" x="24.4" y="68.8" textLength="1012.6" clip-path="url(#terminal-01-jogador-line-2)">██║&#160;&#160;&#160;&#160;&#160;███████╗&#160;█████╔╝&#160;&#160;&#160;&#160;&#160;██║&#160;&#160;&#160;██████╔╝███████║██║&#160;&#160;&#160;&#160;&#160;█████╔╝&#160;█████╗&#160;&#160;██████╔╝</text><text class="terminal-01-jogador-r1" x="1220" y="68.8" textLength="12.2" clip-path="url(#terminal-01-jogador-line-2)">
</text><text class="terminal-01-jogador-r2" x="24.4" y="93.2" textLength="1012.6" clip-path="url(#terminal-01-jogador-line-3)">██║&#160;&#160;&#160;&#160;&#160;╚════██║██╔═══╝&#160;&#160;&#160;&#160;&#160;&#160;██║&#160;&#160;&#160;██╔══██╗██╔══██║██║&#160;&#160;&#160;&#160;&#160;██╔═██╗&#160;██╔══╝&#160;&#160;██╔══██╗</text><text class="terminal-01-jogador-r1" x="1220" y="93.2" textLength="12.2" clip-path="url(#terminal-01-jogador-line-3)">
</text><text class="terminal-01-jogador-r2" x="24.4" y="117.6" textLength="1012.6" clip-path="url(#terminal-01-jogador-line-4)">╚██████╗███████║███████╗&#160;&#160;&#160;&#160;&#160;██║&#160;&#160;&#160;██║&#160;&#160;██║██║&#160;&#160;██║╚██████╗██║&#160;&#160;██╗███████╗██║&#160;&#160;██║</text><text class="terminal-01-jogador-r1" x="1220" y="117.6" textLength="12.2" clip-path="url(#terminal-01-jogador-line-4)">
</text><text class="terminal-01-jogador-r2" x="24.4" y="142" textLength="1012.6" clip-path="url(#terminal-01-jogador-line-5)">&#160;╚═════╝╚══════╝╚══════╝&#160;&#160;&#160;&#160;&#160;╚═╝&#160;&#160;&#160;╚═╝&#160;&#160;╚═╝╚═╝&#160;&#160;╚═╝&#160;╚═════╝╚═╝&#160;&#160;╚═╝╚══════╝╚═╝&#160;&#160;╚═╝</text><text class="terminal-01-jogador-r1" x="1220" y="142" textLength="12.2" clip-path="url(#terminal-01-jogador-line-5)">
</text><text class="terminal-01-jogador-r1" x="1220" y="166.4" textLength="12.2" clip-path="url(#terminal-01-jogador-line-6)">
</text><text class="terminal-01-jogador-r3" x="24.4" y="190.8" textLength="1159" clip-path="url(#terminal-01-jogador-line-7)">Este&#160;wizard&#160;monta&#160;uma&#160;partida&#160;contra&#160;bots&#160;no&#160;servidor&#160;local:&#160;sobe&#160;o&#160;container,&#160;carrega&#160;a&#160;série,</text><text class="terminal-01-jogador-r1" x="1220" y="190.8" textLength="12.2" clip-path="url(#terminal-01-jogador-line-7)">
</text><text class="terminal-01-jogador-r3" x="24.4" y="215.2" textLength="744.2" clip-path="url(#terminal-01-jogador-line-8)">balanceia&#160;os&#160;times&#160;e&#160;ainda&#160;grava&#160;demo&#160;e&#160;stats&#160;sozinho&#160;no&#160;fim.</text><text class="terminal-01-jogador-r1" x="1220" y="215.2" textLength="12.2" clip-path="url(#terminal-01-jogador-line-8)">
</text><text class="terminal-01-jogador-r1" x="1220" y="239.6" textLength="12.2" clip-path="url(#terminal-01-jogador-line-9)">
</text><text class="terminal-01-jogador-r3" x="24.4" y="264" textLength="1085.8" clip-path="url(#terminal-01-jogador-line-10)">São&#160;6&#160;passos&#160;até&#160;jogar&#160;-&#160;a&#160;barra&#160;lá&#160;embaixo&#160;mostra&#160;onde&#160;você&#160;está.&#160;Use&#160;Tab&#160;e&#160;as&#160;setas&#160;pra</text><text class="terminal-01-jogador-r1" x="1220" y="264" textLength="12.2" clip-path="url(#terminal-01-jogador-line-10)">
</text><text class="terminal-01-jogador-r3" x="24.4" y="288.4" textLength="671" clip-path="url(#terminal-01-jogador-line-11)">navegar,&#160;Enter&#160;pra&#160;confirmar&#160;e&#160;Esc&#160;pra&#160;voltar&#160;um&#160;passo.</text><text class="terminal-01-jogador-r1" x="1220" y="288.4" textLength="12.2" clip-path="url(#terminal-01-jogador-line-11)">
</text><text class="terminal-01-jogador-r1" x="1220" y="312.8" textLength="12.2" clip-path="url(#terminal-01-jogador-line-12)">
</text><text class="terminal-01-jogador-r3" x="24.4" y="337.2" textLength="1171.2" clip-path="url(#terminal-01-jogador-line-13)">Pra&#160;começar,&#160;digite&#160;seu&#160;nick&#160;in-game&#160;(o&#160;mesmo&#160;que&#160;aparece&#160;no&#160;placar)&#160;ou&#160;seu&#160;SteamID64&#160;e&#160;confirme</text><text class="terminal-01-jogador-r1" x="1220" y="337.2" textLength="12.2" clip-path="url(#terminal-01-jogador-line-13)">
</text><text class="terminal-01-jogador-r3" x="24.4" y="361.6" textLength="158.6" clip-path="url(#terminal-01-jogador-line-14)">em&#160;Continuar.</text><text class="terminal-01-jogador-r1" x="1220" y="361.6" textLength="12.2" clip-path="url(#terminal-01-jogador-line-14)">
</text><text class="terminal-01-jogador-r1" x="1220" y="386" textLength="12.2" clip-path="url(#terminal-01-jogador-line-15)">
</text><text class="terminal-01-jogador-r4" x="24.4" y="410.4" textLength="317.2" clip-path="url(#terminal-01-jogador-line-16)">Nick&#160;in-game&#160;ou&#160;SteamID64:</text><text class="terminal-01-jogador-r1" x="1220" y="410.4" textLength="12.2" clip-path="url(#terminal-01-jogador-line-16)">
</text><text class="terminal-01-jogador-r5" x="24.4" y="434.8" textLength="12.2" clip-path="url(#terminal-01-jogador-line-17)">▊</text><text class="terminal-01-jogador-r6" x="36.6" y="434.8" textLength="1146.8" clip-path="url(#terminal-01-jogador-line-17)">▔▔▔▔▔▔▔▔▔▔▔▔▔▔▔▔▔▔▔▔▔▔▔▔▔▔▔▔▔▔▔▔▔▔▔▔▔▔▔▔▔▔▔▔▔▔▔▔▔▔▔▔▔▔▔▔▔▔▔▔▔▔▔▔▔▔▔▔▔▔▔▔▔▔▔▔▔▔▔▔▔▔▔▔▔▔▔▔▔▔▔▔▔▔</text><text class="terminal-01-jogador-r6" x="1183.4" y="434.8" textLength="12.2" clip-path="url(#terminal-01-jogador-line-17)">▎</text><text class="terminal-01-jogador-r1" x="1220" y="434.8" textLength="12.2" clip-path="url(#terminal-01-jogador-line-17)">
</text><text class="terminal-01-jogador-r5" x="24.4" y="459.2" textLength="12.2" clip-path="url(#terminal-01-jogador-line-18)">▊</text><text class="terminal-01-jogador-r4" x="61" y="459.2" textLength="73.2" clip-path="url(#terminal-01-jogador-line-18)">cobaia</text><text class="terminal-01-jogador-r6" x="1183.4" y="459.2" textLength="12.2" clip-path="url(#terminal-01-jogador-line-18)">▎</text><text class="terminal-01-jogador-r1" x="1220" y="459.2" textLength="12.2" clip-path="url(#terminal-01-jogador-line-18)">
</text><text class="terminal-01-jogador-r5" x="24.4" y="483.6" textLength="12.2" clip-path="url(#terminal-01-jogador-line-19)">▊</text><text class="terminal-01-jogador-r6" x="36.6" y="483.6" textLength="1146.8" clip-path="url(#terminal-01-jogador-line-19)">▁▁▁▁▁▁▁▁▁▁▁▁▁▁▁▁▁▁▁▁▁▁▁▁▁▁▁▁▁▁▁▁▁▁▁▁▁▁▁▁▁▁▁▁▁▁▁▁▁▁▁▁▁▁▁▁▁▁▁▁▁▁▁▁▁▁▁▁▁▁▁▁▁▁▁▁▁▁▁▁▁▁▁▁▁▁▁▁▁▁▁▁▁▁</text><text class="terminal-01-jogador-r6" x="1183.4" y="483.6" textLength="12.2" clip-path="url(#terminal-01-jogador-line-19)">▎</text><text class="terminal-01-jogador-r1" x="1220" y="483.6" textLength="12.2" clip-path="url(#terminal-01-jogador-line-19)">
</text><text class="terminal-01-jogador-r1" x="1220" y="508" textLength="12.2" clip-path="url(#terminal-01-jogador-line-20)">
</text><text class="terminal-01-jogador-r1" x="1220" y="532.4" textLength="12.2" clip-path="url(#terminal-01-jogador-line-21)">
</text><text class="terminal-01-jogador-r8" x="24.4" y="556.8" textLength="195.2" clip-path="url(#terminal-01-jogador-line-22)">▔▔▔▔▔▔▔▔▔▔▔▔▔▔▔▔</text><text class="terminal-01-jogador-r1" x="1220" y="556.8" textLength="12.2" clip-path="url(#terminal-01-jogador-line-22)">
</text><text class="terminal-01-jogador-r9" x="48.8" y="581.2" textLength="134.2" clip-path="url(#terminal-01-jogador-line-23)">&#160;Continuar&#160;</text><text class="terminal-01-jogador-r1" x="1220" y="581.2" textLength="12.2" clip-path="url(#terminal-01-jogador-line-23)">
</text><text class="terminal-01-jogador-r10" x="24.4" y="605.6" textLength="195.2" clip-path="url(#terminal-01-jogador-line-24)">▁▁▁▁▁▁▁▁▁▁▁▁▁▁▁▁</text><text class="terminal-01-jogador-r1" x="1220" y="605.6" textLength="12.2" clip-path="url(#terminal-01-jogador-line-24)">
</text><text class="terminal-01-jogador-r1" x="1220" y="630" textLength="12.2" clip-path="url(#terminal-01-jogador-line-25)">
</text><text class="terminal-01-jogador-r1" x="1220" y="654.4" textLength="12.2" clip-path="url(#terminal-01-jogador-line-26)">
</text><text class="terminal-01-jogador-r1" x="1220" y="678.8" textLength="12.2" clip-path="url(#terminal-01-jogador-line-27)">
</text><text class="terminal-01-jogador-r1" x="1220" y="703.2" textLength="12.2" clip-path="url(#terminal-01-jogador-line-28)">
</text><text class="terminal-01-jogador-r1" x="1220" y="727.6" textLength="12.2" clip-path="url(#terminal-01-jogador-line-29)">
</text><text class="terminal-01-jogador-r1" x="1220" y="752" textLength="12.2" clip-path="url(#terminal-01-jogador-line-30)">
</text><text class="terminal-01-jogador-r11" x="24.4" y="776.4" textLength="85.4" clip-path="url(#terminal-01-jogador-line-31)">Jogador</text><text class="terminal-01-jogador-r12" x="122" y="776.4" textLength="12.2" clip-path="url(#terminal-01-jogador-line-31)">&gt;</text><text class="terminal-01-jogador-r12" x="146.4" y="776.4" textLength="85.4" clip-path="url(#terminal-01-jogador-line-31)">Formato</text><text class="terminal-01-jogador-r12" x="244" y="776.4" textLength="12.2" clip-path="url(#terminal-01-jogador-line-31)">&gt;</text><text class="terminal-01-jogador-r12" x="268.4" y="776.4" textLength="61" clip-path="url(#terminal-01-jogador-line-31)">Mapas</text><text class="terminal-01-jogador-r12" x="341.6" y="776.4" textLength="12.2" clip-path="url(#terminal-01-jogador-line-31)">&gt;</text><text class="terminal-01-jogador-r12" x="366" y="776.4" textLength="61" clip-path="url(#terminal-01-jogador-line-31)">Lados</text><text class="terminal-01-jogador-r12" x="439.2" y="776.4" textLength="12.2" clip-path="url(#terminal-01-jogador-line-31)">&gt;</text><text class="terminal-01-jogador-r12" x="463.6" y="776.4" textLength="73.2" clip-path="url(#terminal-01-jogador-line-31)">Resumo</text><text class="terminal-01-jogador-r12" x="549" y="776.4" textLength="12.2" clip-path="url(#terminal-01-jogador-line-31)">&gt;</text><text class="terminal-01-jogador-r12" x="573.4" y="776.4" textLength="85.4" clip-path="url(#terminal-01-jogador-line-31)">Partida</text><text class="terminal-01-jogador-r1" x="1220" y="776.4" textLength="12.2" clip-path="url(#terminal-01-jogador-line-31)">
</text><text class="terminal-01-jogador-r13" x="24.4" y="800.8" textLength="292.8" clip-path="url(#terminal-01-jogador-line-32)">████░░░░░░░░░░░░░░░░░░░░</text><text class="terminal-01-jogador-r14" x="329.4" y="800.8" textLength="109.8" clip-path="url(#terminal-01-jogador-line-32)">passo&#160;1/6</text><text class="terminal-01-jogador-r12" x="451.4" y="800.8" textLength="12.2" clip-path="url(#terminal-01-jogador-line-32)">-</text><text class="terminal-01-jogador-r4" x="463.6" y="800.8" textLength="97.6" clip-path="url(#terminal-01-jogador-line-32)">&#160;Jogador</text><text class="terminal-01-jogador-r1" x="1220" y="800.8" textLength="12.2" clip-path="url(#terminal-01-jogador-line-32)">
</text><text class="terminal-01-jogador-r15" x="1073.6" y="825.2" textLength="12.2" clip-path="url(#terminal-01-jogador-line-33)">▏</text><text class="terminal-01-jogador-r16" x="1085.8" y="825.2" textLength="24.4" clip-path="url(#terminal-01-jogador-line-33)">^p</text><text class="terminal-01-jogador-r4" x="1110.2" y="825.2" textLength="97.6" clip-path="url(#terminal-01-jogador-line-33)">&#160;palette</text>
    </g>
    </g>
</svg>
