<svg class="rich-terminal" viewBox="0 0 1238 879.5999999999999" xmlns="http://www.w3.org/2000/svg">
    <!-- Generated with Rich https://www.textualize.io -->
    <style>

    @font-face {
        font-family: "Fira Code";
        src: local("FiraCode-Regular"),
                url("https://cdnjs.cloudflare.com/ajax/libs/firacode/6.2.0/woff2/FiraCode-Regular.woff2") format("woff2"),
                url("https://cdnjs.cloudflare.com/ajax/libs/firacode/6.2.0/woff/FiraCode-Regular.woff") format("woff");
        font-style: normal;
        font-weight: 400;
    }
    @font-face {
        font-family: "Fira Code";
        src: local("FiraCode-Bold"),
                url("https://cdnjs.cloudflare.com/ajax/libs/firacode/6.2.0/woff2/FiraCode-Bold.woff2") format("woff2"),
                url("https://cdnjs.cloudflare.com/ajax/libs/firacode/6.2.0/woff/FiraCode-Bold.woff") format("woff");
        font-style: bold;
        font-weight: 700;
    }

    .terminal-07-partida-matrix {
        font-family: Fira Code, monospace;
        font-size: 20px;
        line-height: 24.4px;
        font-variant-east-asian: full-width;
    }

    .terminal-07-partida-title {
        font-size: 18px;
        font-weight: bold;
        font-family: arial;
    }

    .terminal-07-partida-r1 { fill: #c5c8c6 }
.terminal-07-partida-r2 { fill: #fea62b;font-weight: bold }
.terminal-07-partida-r3 { fill: #a0a0a0 }
.terminal-07-partida-r4 { fill: #7ae998 }
.terminal-07-partida-r5 { fill: #55c076;font-weight: bold }
.terminal-07-partida-r6 { fill: #008139 }
.terminal-07-partida-r7 { fill: #e0e0e0 }
.terminal-07-partida-r8 { fill: #008000 }
.terminal-07-partida-r9 { fill: #a0a3a6 }
.terminal-07-partida-r10 { fill: #00ffff;font-weight: bold }
.terminal-07-partida-r11 { fill: #00ffff }
.terminal-07-partida-r12 { fill: #e0e0e0;font-weight: bold }
.terminal-07-partida-r13 { fill: #ffa62b;font-weight: bold }
.terminal-07-partida-r14 { fill: #495259 }
    </style>

    <defs>
    <clipPath id="terminal-07-partida-clip-terminal">
      <rect x="0" y="0" width="1219.0" height="828.5999999999999" />
    </clipPath>
    <clipPath id="terminal-07-partida-line-0">
    <rect x="0" y="1.5" width="1220" height="24.65"/>
            </clipPath>
<clipPath id="terminal-07-partida-line-1">
    <rect x="0" y="25.9" width="1220" height="24.65"/>
            </clipPath>
<clipPath id="terminal-07-partida-line-2">
    <rect x="0" y="50.3" width="1220" height="24.65"/>
            </clipPath>
<clipPath id="terminal-07-partida-line-3">
    <rect x="0" y="74.7" width="1220" height="24.65"/>
            </clipPath>
<clipPath id="terminal-07-partida-line-4">
    <rect x="0" y="99.1" width="1220" height="24.65"/>
            </clipPath>
<clipPath id="terminal-07-partida-line-5">
    <rect x="0" y="123.5" width="1220" height="24.65"/>
            </clipPath>
<clipPath id="terminal-07-partida-line-6">
    <rect x="0" y="147.9" width="1220" height="24.65"/>
            </clipPath>
<clipPath id="terminal-07-partida-line-7">
    <rect x="0" y="172.3" width="1220" height="24.65"/>
            </clipPath>
<clipPath id="terminal-07-partida-line-8">
    <rect x="0" y="196.7" width="1220" height="24.65"/>
            </clipPath>
<clipPath id="terminal-07-partida-line-9">
    <rect x="0" y="221.1" width="1220" height="24.65"/>
            </clipPath>
<clipPath id="terminal-07-partida-line-10">
    <rect x="0" y="245.5" width="1220" height="24.65"/>
            </clipPath>
<clipPath id="terminal-07-partida-line-11">
    <rect x="0" y="269.9" width="1220" height="24.65"/>
            </clipPath>
<clipPath id="terminal-07-partida-line-12">
    <rect x="0" y="294.3" width="1220" height="24.65"/>
            </clipPath>
<clipPath id="terminal-07-partida-line-13">
    <rect x="0" y="318.7" width="1220" height="24.65"/>
            </clipPath>
<clipPath id="terminal-07-partida-line-14">
    <rect x="0" y="343.1" width="1220" height="24.65"/>
            </clipPath>
<clipPath id="terminal-07-partida-line-15">
    <rect x="0" y="367.5" width="1220" height="24.65"/>
            </clipPath>
<clipPath id="terminal-07-partida-line-16">
    <rect x="0" y="391.9" width="1220" height="24.65"/>
            </clipPath>
<clipPath id="terminal-07-partida-line-17">
    <rect x="0" y="416.3" width="1220" height="24.65"/>
            </clipPath>
<clipPath id="terminal-07-partida-line-18">
    <rect x="0" y="440.7" width="1220" height="24.65"/>
            </clipPath>
<clipPath id="terminal-07-partida-line-19">
    <rect x="0" y="465.1" width="1220" height="24.65"/>
            </clipPath>
<clipPath id="terminal-07-partida-line-20">
    <rect x="0" y="489.5" width="1220" height="24.65"/>
            </clipPath>
<clipPath id="terminal-07-partida-line-21">
    <rect x="0" y="513.9" width="1220" height="24.65"/>
            </clipPath>
<clipPath id="terminal-07-partida-line-22">
    <rect x="0" y="538.3" width="1220" height="24.65"/>
            </clipPath>
<clipPath id="terminal-07-partida-line-23">
    <rect x="0" y="562.7" width="1220" height="24.65"/>
            </clipPath>
<clipPath id="terminal-07-partida-line-24">
    <rect x="0" y="587.1" width="1220" height="24.65"/>
            </clipPath>
<clipPath id="terminal-07-partida-line-25">
    <rect x="0" y="611.5" width="1220" height="24.65"/>
            </clipPath>
<clipPath id="terminal-07-partida-line-26">
    <rect x="0" y="635.9" width="1220" height="24.65"/>
            </clipPath>
<clipPath id="terminal-07-partida-line-27">
    <rect x="0" y="660.3" width="1220" height="24.65"/>
            </clipPath>
<clipPath id="terminal-07-partida-line-28">
    <rect x="0" y="684.7" width="1220" height="24.65"/>
            </clipPath>
<clipPath id="terminal-07-partida-line-29">
    <rect x="0" y="709.1" width="1220" height="24.65"/>
            </clipPath>
<clipPath id="terminal-07-partida-line-30">
    <rect x="0" y="733.5" width="1220" height="24.65"/>
            </clipPath>
<clipPath id="terminal-07-partida-line-31">
    <rect x="0" y="757.9" width="1220" height="24.65"/>
            </clipPath>
<clipPath id="terminal-07-partida-line-32">
    <rect x="0" y="782.3" width="1220" height="24.65"/>
            </clipPath>
    </defs>

    <rect fill="#292929" stroke="rgba(255,255,255,0.35)" stroke-width="1" x="1" y="1" width="1236" height="877.6" rx="8"/><text class="terminal-07-partida-title" fill="#c5c8c6" text-anchor="middle" x="618" y="27">CS2&#160;Tracker</text>
            <g transform="translate(26,22)">
            <circle cx="0" cy="0" r="7" fill="#ff5f57"/>
            <circle cx="22" cy="0" r="7" fill="#febc2e"/>
            <circle cx="44" cy="0" r="7" fill="#28c840"/>
            </g>
        
    <g transform="translate(9, 41)" clip-path="url(#terminal-07-partida-clip-terminal)">
    <rect fill="#121212" x="0" y="1.5" width="24.4" height="24.65" shape-rendering="crispEdges"/><rect fill="#121212" x="24.4" y="1.5" width="390.4" height="24.65" shape-rendering="crispEdges"/><rect fill="#121212" x="414.8" y="1.5" width="780.8" height="24.65" shape-rendering="crispEdges"/><rect fill="#121212" x="1195.6" y="1.5" width="24.4" height="24.65" shape-rendering="crispEdges"/><rect fill="#121212" x="0" y="25.9" width="24.4" height="24.65" shape-rendering="crispEdges"/><rect fill="#121212" x="24.4" y="25.9" width="390.4" height="24.65" shape-rendering="crispEdges"/><rect fill="#121212" x="414.8" y="25.9" width="780.8" height="24.65" shape-rendering="crispEdges"/><rect fill="#121212" x="1195.6" y="25.9" width="24.4" height="24.65" shape-rendering="crispEdges"/><rect fill="#121212" x="0" y="50.3" width="24.4" height="24.65" shape-rendering="crispEdges"/><rect fill="#121212" x="24.4" y="50.3" width="390.4" height="24.65" shape-rendering="crispEdges"/><rect fill="#121212" x="414.8" y="50.3" width="780.8" height="24.65" shape-rendering="crispEdges"/><rect fill="#121212" x="1195.6" y="50.3" width="24.4" height="24.65" shape-rendering="crispEdges"/><rect fill="#121212" x="0" y="74.7" width="1220" height="24.65" shape-rendering="crispEdges"/><rect fill="#121212" x="0" y="99.1" width="24.4" height="24.65" shape-rendering="crispEdges"/><rect fill="#121212" x="24.4" y="99.1" width="939.4" height="24.65" shape-rendering="crispEdges"/><rect fill="#121212" x="963.8" y="99.1" width="231.8" height="24.65" shape-rendering="crispEdges"/><rect fill="#121212" x="1195.6" y="99.1" width="24.4" height="24.65" shape-rendering="crispEdges"/><rect fill="#121212" x="0" y="123.5" width="24.4" height="24.65" shape-rendering="crispEdges"/><rect fill="#121212" x="24.4" y="123.5" width="988.2" height="24.65" shape-rendering="crispEdges"/><rect fill="#121212" x="1012.6" y="123.5" width="183" height="24.65" shape-rendering="crispEdges"/><rect fill="#121212" x="1195.6" y="123.5" width="24.4" height="24.65" shape-rendering="crispEdges"/><rect fill="#121212" x="0" y="147.9" width="24.4" height="24.65" shape-rendering="crispEdges"/><rect fill="#121212" x="24.4" y="147.9" width="866.2" height="24.65" shape-rendering="crispEdges"/><rect fill="#121212" x="890.6" y="147.9" width="305" height="24.65" shape-rendering="crispEdges"/><rect fill="#121212" x="1195.6" y="147.9" width="24.4" height="24.65" shape-rendering="crispEdges"/><rect fill="#121212" x="0" y="172.3" width="24.4" height="24.65" shape-rendering="crispEdges"/><rect fill="#121212" x="24.4" y="172.3" width="1171.2" height="24.65" shape-rendering="crispEdges"/><rect fill="#121212" x="1195.6" y="172.3" width="24.4" height="24.65" shape-rendering="crispEdges"/><rect fill="#121212" x="0" y="196.7" width="24.4" height="24.65" shape-rendering="crispEdges"/><rect fill="#55c076" x="24.4" y="196.7" width="536.8" height="24.65" shape-rendering="crispEdges"/><rect fill="#121212" x="561.2" y="196.7" width="634.4" height="24.65" shape-rendering="crispEdges"/><rect fill="#121212" x="1195.6" y="196.7" width="24.4" height="24.65" shape-rendering="crispEdges"/><rect fill="#121212" x="0" y="221.1" width="24.4" height="24.65" shape-rendering="crispEdges"/><rect fill="#0b180f" x="24.4" y="221.1" width="536.8" height="24.65" shape-rendering="crispEdges"/><rect fill="#121212" x="561.2" y="221.1" width="634.4" height="24.65" shape-rendering="crispEdges"/><rect fill="#121212" x="1195.6" y="221.1" width="24.4" height="24.65" shape-rendering="crispEdges"/><rect fill="#121212" x="0" y="245.5" width="24.4" height="24.65" shape-rendering="crispEdges"/><rect fill="#55c076" x="24.4" y="245.5" width="536.8" height="24.65" shape-rendering="crispEdges"/><rect fill="#121212" x="561.2" y="245.5" width="634.4" height="24.65" shape-rendering="crispEdges"/><rect fill="#121212" x="1195.6" y="245.5" width="24.4" height="24.65" shape-rendering="crispEdges"/><rect fill="#121212" x="0" y="269.9" width="24.4" height="24.65" shape-rendering="crispEdges"/><rect fill="#1e1e1e" x="24.4" y="269.9" width="854" height="24.65" shape-rendering="crispEdges"/><rect fill="#1e1e1e" x="878.4" y="269.9" width="292.8" height="24.65" shape-rendering="crispEdges"/><rect fill="#000000" x="1171.2" y="269.9" width="24.4" height="24.65" shape-rendering="crispEdges"/><rect fill="#121212" x="1195.6" y="269.9" width="24.4" height="24.65" shape-rendering="crispEdges"/><rect fill="#121212" x="0" y="294.3" width="24.4" height="24.65" shape-rendering="crispEdges"/><rect fill="#1e1e1e" x="24.4" y="294.3" width="158.6" height="24.65" shape-rendering="crispEdges"/><rect fill="#1e1e1e" x="183" y="294.3" width="988.2" height="24.65" shape-rendering="crispEdges"/><rect fill="#000000" x="1171.2" y="294.3" width="24.4" height="24.65" shape-rendering="crispEdges"/><rect fill="#121212" x="1195.6" y="294.3" width="24.4" height="24.65" shape-rendering="crispEdges"/><rect fill="#121212" x="0" y="318.7" width="24.4" height="24.65" shape-rendering="crispEdges"/><rect fill="#1e1e1e" x="24.4" y="318.7" width="573.4" height="24.65" shape-rendering="crispEdges"/><rect fill="#1e1e1e" x="597.8" y="318.7" width="573.4" height="24.65" shape-rendering="crispEdges"/><rect fill="#000000" x="1171.2" y="318.7" width="24.4" height="24.65" shape-rendering="crispEdges"/><rect fill="#121212" x="1195.6" y="318.7" width="24.4" height="24.65" shape-rendering="crispEdges"/><rect fill="#121212" x="0" y="343.1" width="24.4" height="24.65" shape-rendering="crispEdges"/><rect fill="#1e1e1e" x="24.4" y="343.1" width="902.8" height="24.65" shape-rendering="crispEdges"/><rect fill="#1e1e1e" x="927.2" y="343.1" width="244" height="24.65" shape-rendering="crispEdges"/><rect fill="#000000" x="1171.2" y="343.1" width="24.4" height="24.65" shape-rendering="crispEdges"/><rect fill="#121212" x="1195.6" y="343.1" width="24.4" height="24.65" shape-rendering="crispEdges"/><rect fill="#121212" x="0" y="367.5" width="24.4" height="24.65" shape-rendering="crispEdges"/><rect fill="#1e1e1e" x="24.4" y="367.5" width="817.4" height="24.65" shape-rendering="crispEdges"/><rect fill="#1e1e1e" x="841.8" y="367.5" width="329.4" height="24.65" shape-rendering="crispEdges"/><rect fill="#000000" x="1171.2" y="367.5" width="24.4" height="24.65" shape-rendering="crispEdges"/><rect fill="#121212" x="1195.6" y="367.5" width="24.4" height="24.65" shape-rendering="crispEdges"/><rect fill="#121212" x="0" y="391.9" width="24.4" height="24.65" shape-rendering="crispEdges"/><rect fill="#1e1e1e" x="24.4" y="391.9" width="207.4" height="24.65" shape-rendering="crispEdges"/><rect fill="#1e1e1e" x="231.8" y="391.9" width="939.4" height="24.65" shape-rendering="crispEdges"/><rect fill="#000000" x="1171.2" y="391.9" width="24.4" height="24.65" shape-rendering="crispEdges"/><rect fill="#121212" x="1195.6" y="391.9" width="24.4" height="24.65" shape-rendering="crispEdges"/><rect fill="#121212" x="0" y="416.3" width="24.4" height="24.65" shape-rendering="crispEdges"/><rect fill="#1e1e1e" x="24.4" y="416.3" width="683.2" height="24.65" shape-rendering="crispEdges"/><rect fill="#1e1e1e" x="707.6" y="416.3" width="463.6" height="24.65" shape-rendering="crispEdges"/><rect fill="#000000" x="1171.2" y="416.3" width="24.4" height="24.65" shape-rendering="crispEdges"/><rect fill="#121212" x="1195.6" y="416.3" width="24.4" height="24.65" shape-rendering="crispEdges"/><rect fill="#121212" x="0" y="440.7" width="24.4" height="24.65" shape-rendering="crispEdges"/><rect fill="#1e1e1e" x="24.4" y="440.7" width="573.4" height="24.65" shape-rendering="crispEdges"/><rect fill="#1e1e1e" x="597.8" y="440.7" width="573.4" height="24.65" shape-rendering="crispEdges"/><rect fill="#000000" x="1171.2" y="440.7" width="24.4" height="24.65" shape-rendering="crispEdges"/><rect fill="#121212" x="1195.6" y="440.7" width="24.4" height="24.65" shape-rendering="crispEdges"/><rect fill="#121212" x="0" y="465.1" width="24.4" height="24.65" shape-rendering="crispEdges"/><rect fill="#1e1e1e" x="24.4" y="465.1" width="292.8" height="24.65" shape-rendering="crispEdges"/><rect fill="#1e1e1e" x="317.2" y="465.1" width="854" height="24.65" shape-rendering="crispEdges"/><rect fill="#000000" x="1171.2" y="465.1" width="24.4" height="24.65" shape-rendering="crispEdges"/><rect fill="#121212" x="1195.6" y="465.1" width="24.4" height="24.65" shape-rendering="crispEdges"/><rect fill="#121212" x="0" y="489.5" width="24.4" height="24.65" shape-rendering="crispEdges"/><rect fill="#1e1e1e" x="24.4" y="489.5" width="854" height="24.65" shape-rendering="crispEdges"/><rect fill="#1e1e1e" x="878.4" y="489.5" width="292.8" height="24.65" shape-rendering="crispEdges"/><rect fill="#000000" x="1171.2" y="489.5" width="24.4" height="24.65" shape-rendering="crispEdges"/><rect fill="#121212" x="1195.6" y="489.5" width="24.4" height="24.65" shape-rendering="crispEdges"/><rect fill="#121212" x="0" y="513.9" width="24.4" height="24.65" shape-rendering="crispEdges"/><rect fill="#1e1e1e" x="24.4" y="513.9" width="634.4" height="24.65" shape-rendering="crispEdges"/><rect fill="#1e1e1e" x="658.8" y="513.9" width="512.4" height="24.65" shape-rendering="crispEdges"/><rect fill="#000000" x="1171.2" y="513.9" width="24.4" height="24.65" shape-rendering="crispEdges"/><rect fill="#121212" x="1195.6" y="513.9" width="24.4" height="24.65" shape-rendering="crispEdges"/><rect fill="#121212" x="0" y="538.3" width="24.4" height="24.65" shape-rendering="crispEdges"/><rect fill="#1e1e1e" x="24.4" y="538.3" width="463.6" height="24.65" shape-rendering="crispEdges"/><rect fill="#1e1e1e" x="488" y="538.3" width="683.2" height="24.65" shape-rendering="crispEdges"/><rect fill="#000000" x="1171.2" y="538.3" width="24.4" height="24.65" shape-rendering="crispEdges"/><rect fill="#121212" x="1195.6" y="538.3" width="24.4" height="24.65" shape-rendering="crispEdges"/><rect fill="#121212" x="0" y="562.7" width="24.4" height="24.65" shape-rendering="crispEdges"/><rect fill="#1e1e1e" x="24.4" y="562.7" width="744.2" height="24.65" shape-rendering="crispEdges"/><rect fill="#1e1e1e" x="768.6" y="562.7" width="402.6" height="24.65" shape-rendering="crispEdges"/><rect fill="#000000" x="1171.2" y="562.7" width="24.4" height="24.65" shape-rendering="crispEdges"/><rect fill="#121212" x="1195.6" y="562.7" width="24.4" height="24.65" shape-rendering="crispEdges"/><rect fill="#121212" x="0" y="587.1" width="24.4" height="24.65" shape-rendering="crispEdges"/><rect fill="#1e1e1e" x="24.4" y="587.1" width="646.6" height="24.65" shape-rendering="crispEdges"/><rect fill="#1e1e1e" x="671" y="587.1" width="500.2" height="24.65" shape-rendering="crispEdges"/><rect fill="#000000" x="1171.2" y="587.1" width="24.4" height="24.65" shape-rendering="crispEdges"/><rect fill="#121212" x="1195.6" y="587.1" width="24.4" height="24.65" shape-rendering="crispEdges"/><rect fill="#121212" x="0" y="611.5" width="24.4" height="24.65" shape-rendering="crispEdges"/><rect fill="#1e1e1e" x="24.4" y="611.5" width="854" height="24.65" shape-rendering="crispEdges"/><rect fill="#1e1e1e" x="878.4" y="611.5" width="292.8" height="24.65" shape-rendering="crispEdges"/><rect fill="#000000" x="1171.2" y="611.5" width="24.4" height="24.65" shape-rendering="crispEdges"/><rect fill="#121212" x="1195.6" y="611.5" width="24.4" height="24.65" shape-rendering="crispEdges"/><rect fill="#121212" x="0" y="635.9" width="24.4" height="24.65" shape-rendering="crispEdges"/><rect fill="#1e1e1e" x="24.4" y="635.9" width="1146.8" height="24.65" shape-rendering="crispEdges"/><rect fill="#000000" x="1171.2" y="635.9" width="24.4" height="24.65" shape-rendering="crispEdges"/><rect fill="#121212" x="1195.6" y="635.9" width="24.4" height="24.65" shape-rendering="crispEdges"/><rect fill="#121212" x="0" y="660.3" width="24.4" height="24.65" shape-rendering="crispEdges"/><rect fill="#1e1e1e" x="24.4" y="660.3" width="1146.8" height="24.65" shape-rendering="crispEdges"/><rect fill="#000000" x="1171.2" y="660.3" width="24.4" height="24.65" shape-rendering="crispEdges"/><rect fill="#121212" x="1195.6" y="660.3" width="24.4" height="24.65" shape-rendering="crispEdges"/><rect fill="#121212" x="0" y="684.7" width="24.4" height="24.65" shape-rendering="crispEdges"/><rect fill="#1e1e1e" x="24.4" y="684.7" width="1146.8" height="24.65" shape-rendering="crispEdges"/><rect fill="#000000" x="1171.2" y="684.7" width="24.4" height="24.65" shape-rendering="crispEdges"/><rect fill="#121212" x="1195.6" y="684.7" width="24.4" height="24.65" shape-rendering="crispEdges"/><rect fill="#121212" x="0" y="709.1" width="24.4" height="24.65" shape-rendering="crispEdges"/><rect fill="#1e1e1e" x="24.4" y="709.1" width="1146.8" height="24.65" shape-rendering="crispEdges"/><rect fill="#000000" x="1171.2" y="709.1" width="24.4" height="24.65" shape-rendering="crispEdges"/><rect fill="#121212" x="1195.6" y="709.1" width="24.4" height="24.65" shape-rendering="crispEdges"/><rect fill="#121212" x="0" y="733.5" width="1220" height="24.65" shape-rendering="crispEdges"/><rect fill="#242f38" x="0" y="757.9" width="24.4" height="24.65" shape-rendering="crispEdges"/><rect fill="#242f38" x="24.4" y="757.9" width="85.4" height="24.65" shape-rendering="crispEdges"/><rect fill="#242f38" x="109.8" y="757.9" width="12.2" height="24.65" shape-rendering="crispEdges"/><rect fill="#242f38" x="122" y="757.9" width="12.2" height="24.65" shape-rendering="crispEdges"/><rect fill="#242f38" x="134.2" y="757.9" width="12.2" height="24.65" shape-rendering="crispEdges"/><rect fill="#242f38" x="146.4" y="757.9" width="85.4" height="24.65" shape-rendering="crispEdges"/><rect fill="#242f38" x="231.8" y="757.9" width="12.2" height="24.65" shape-rendering="crispEdges"/><rect fill="#242f38" x="244" y="757.9" width="12.2" height="24.65" shape-rendering="crispEdges"/><rect fill="#242f38" x="256.2" y="757.9" width="12.2" height="24.65" shape-rendering="crispEdges"/><rect fill="#242f38" x="268.4" y="757.9" width="61" height="24.65" shape-rendering="crispEdges"/><rect fill="#242f38" x="329.4" y="757.9" width="12.2" height="24.65" shape-rendering="crispEdges"/><rect fill="#242f38" x="341.6" y="757.9" width="12.2" height="24.65" shape-rendering="crispEdges"/><rect fill="#242f38" x="353.8" y="757.9" width="12.2" height="24.65" shape-rendering="crispEdges"/><rect fill="#242f38" x="366" y="757.9" width="61" height="24.65" shape-rendering="crispEdges"/><rect fill="#242f38" x="427" y="757.9" width="12.2" height="24.65" shape-rendering="crispEdges"/><rect fill="#242f38" x="439.2" y="757.9" width="12.2" height="24.65" shape-rendering="crispEdges"/><rect fill="#242f38" x="451.4" y="757.9" width="12.2" height="24.65" shape-rendering="crispEdges"/><rect fill="#242f38" x="463.6" y="757.9" width="73.2" height="24.65" shape-rendering="crispEdges"/><rect fill="#242f38" x="536.8" y="757.9" width="12.2" height="24.65" shape-rendering="crispEdges"/><rect fill="#242f38" x="549" y="757.9" width="12.2" height="24.65" shape-rendering="crispEdges"/><rect fill="#242f38" x="561.2" y="757.9" width="12.2" height="24.65" shape-rendering="crispEdges"/><rect fill="#242f38" x="573.4" y="757.9" width="85.4" height="24.65" shape-rendering="crispEdges"/><rect fill="#242f38" x="658.8" y="757.9" width="536.8" height="24.65" shape-rendering="crispEdges"/><rect fill="#242f38" x="1195.6" y="757.9" width="24.4" height="24.65" shape-rendering="crispEdges"/><rect fill="#242f38" x="0" y="782.3" width="24.4" height="24.65" shape-rendering="crispEdges"/><rect fill="#242f38" x="24.4" y="782.3" width="292.8" height="24.65" shape-rendering="crispEdges"/><rect fill="#242f38" x="317.2" y="782.3" width="12.2" height="24.65" shape-rendering="crispEdges"/><rect fill="#242f38" x="329.4" y="782.3" width="109.8" height="24.65" shape-rendering="crispEdges"/><rect fill="#242f38" x="439.2" y="782.3" width="12.2" height="24.65" shape-rendering="crispEdges"/><rect fill="#242f38" x="451.4" y="782.3" width="12.2" height="24.65" shape-rendering="crispEdges"/><rect fill="#242f38" x="463.6" y="782.3" width="97.6" height="24.65" shape-rendering="crispEdges"/><rect fill="#242f38" x="561.2" y="782.3" width="634.4" height="24.65" shape-rendering="crispEdges"/><rect fill="#242f38" x="1195.6" y="782.3" width="24.4" height="24.65" shape-rendering="crispEdges"/><rect fill="#242f38" x="0" y="806.7" width="36.6" height="24.65" shape-rendering="crispEdges"/><rect fill="#242f38" x="36.6" y="806.7" width="61" height="24.65" shape-rendering="crispEdges"/><rect fill="#242f38" x="97.6" y="806.7" width="976" height="24.65" shape-rendering="crispEdges"/><rect fill="#242f38" x="1073.6" y="806.7" width="12.2" height="24.65" shape-rendering="crispEdges"/><rect fill="#242f38" x="1085.8" y="806.7" width="24.4" height="24.65" shape-rendering="crispEdges"/><rect fill="#242f38" x="1110.2" y="806.7" width="97.6" height="24.65" shape-rendering="crispEdges"/><rect fill="#242f38" x="1207.8" y="806.7" width="12.2" height="24.65" shape-rendering="crispEdges"/>
    <g class="terminal-07-partida-matrix">
    <text class="terminal-07-partida-r2" x="24.4" y="20" textLength="390.4" clip-path="url(#terminal-07-partida-line-0)">╔═╗╔═╗╔═╗&#160;&#160;╔╦╗╦═╗╔═╗╔═╗╦╔═╔═╗╦═╗</text><text class="terminal-07-partida-r1" x="1220" y="20" textLength="12.2" clip-path="url(#terminal-07-partida-line-0)">
</text><text class="terminal-07-partida-r2" x="24.4" y="44.4" textLength="390.4" clip-path="url(#terminal-07-partida-line-1)">║&#160;&#160;╚═╗╔═╝&#160;&#160;&#160;║&#160;╠╦╝╠═╣║&#160;&#160;╠╩╗║╣&#160;╠╦╝</text><text class="terminal-07-partida-r1" x="1220" y="44.4" textLength="12.2" clip-path="url(#terminal-07-partida-line-1)">
</text><text class="terminal-07-partida-r2" x="24.4" y="68.8" textLength="390.4" clip-path="url(#terminal-07-partida-line-2)">╚═╝╚═╝╚═╝&#160;&#160;&#160;╩&#160;╩╚═╩&#160;╩╚═╝╩&#160;╩╚═╝╩╚═</text><text class="terminal-07-partida-r1" x="1220" y="68.8" textLength="12.2" clip-path="url(#terminal-07-partida-line-2)">
</text><text class="terminal-07-partida-r1" x="1220" y="93.2" textLength="12.2" clip-path="url(#terminal-07-partida-line-3)">
</text><text class="terminal-07-partida-r3" x="24.4" y="117.6" textLength="939.4" clip-path="url(#terminal-07-partida-line-4)">Enquanto&#160;o&#160;servidor&#160;sobe,&#160;deixe&#160;o&#160;CS2&#160;aberto.&#160;Quando&#160;o&#160;log&#160;pedir,&#160;conecte&#160;por</text><text class="terminal-07-partida-r1" x="1220" y="117.6" textLength="12.2" clip-path="url(#terminal-07-partida-line-4)">
</text><text class="terminal-07-partida-r3" x="24.4" y="142" textLength="988.2" clip-path="url(#terminal-07-partida-line-5)">Jogar&#160;&gt;&#160;Servidores&#160;&gt;&#160;Rede&#160;Local,&#160;ou&#160;pela&#160;console&#160;do&#160;jogo:&#160;connect&#160;127.0.0.1:27015</text><text class="terminal-07-partida-r1" x="1220" y="142" textLength="12.2" clip-path="url(#terminal-07-partida-line-5)">
</text><text class="terminal-07-partida-r3" x="24.4" y="166.4" textLength="866.2" clip-path="url(#terminal-07-partida-line-6)">Já&#160;conectado,&#160;digite&#160;.ready&#160;no&#160;chat&#160;do&#160;jogo&#160;e&#160;volte&#160;aqui&#160;pra&#160;confirmar.</text><text class="terminal-07-partida-r1" x="1220" y="166.4" textLength="12.2" clip-path="url(#terminal-07-partida-line-6)">
</text><text class="terminal-07-partida-r1" x="1220" y="190.8" textLength="12.2" clip-path="url(#terminal-07-partida-line-7)">
</text><text class="terminal-07-partida-r4" x="24.4" y="215.2" textLength="536.8" clip-path="url(#terminal-07-partida-line-8)">▔▔▔▔▔▔▔▔▔▔▔▔▔▔▔▔▔▔▔▔▔▔▔▔▔▔▔▔▔▔▔▔▔▔▔▔▔▔▔▔▔▔▔▔</text><text class="terminal-07-partida-r1" x="1220" y="215.2" textLength="12.2" clip-path="url(#terminal-07-partida-line-8)">
</text><text class="terminal-07-partida-r5" x="24.4" y="239.6" textLength="536.8" clip-path="url(#terminal-07-partida-line-9)">&#160;Já&#160;conectei&#160;e&#160;dei&#160;.ready&#160;-&#160;iniciar&#160;partida&#160;</text><text class="terminal-07-partida-r1" x="1220" y="239.6" textLength="12.2" clip-path="url(#terminal-07-partida-line-9)">
</text><text class="terminal-07-partida-r6" x="24.4" y="264" textLength="536.8" clip-path="url(#terminal-07-partida-line-10)">▁▁▁▁▁▁▁▁▁▁▁▁▁▁▁▁▁▁▁▁▁▁▁▁▁▁▁▁▁▁▁▁▁▁▁▁▁▁▁▁▁▁▁▁</text><text class="terminal-07-partida-r1" x="1220" y="264" textLength="12.2" clip-path="url(#terminal-07-partida-line-10)">
</text><text class="terminal-07-partida-r7" x="24.4" y="288.4" textLength="854" clip-path="url(#terminal-07-partida-line-11)">[CONFIG]&#160;match_config.spike.json:&#160;maplist&#160;-&gt;&#160;[&#x27;de_mirage&#x27;,&#160;&#x27;de_nuke&#x27;,&#160;</text><text class="terminal-07-partida-r1" x="1220" y="288.4" textLength="12.2" clip-path="url(#terminal-07-partida-line-11)">
</text><text class="terminal-07-partida-r7" x="24.4" y="312.8" textLength="158.6" clip-path="url(#terminal-07-partida-line-12)">&#x27;de_inferno&#x27;]</text><text class="terminal-07-partida-r1" x="1220" y="312.8" textLength="12.2" clip-path="url(#terminal-07-partida-line-12)">
</text><text class="terminal-07-partida-r7" x="24.4" y="337.2" textLength="573.4" clip-path="url(#terminal-07-partida-line-13)">[DOCKER]&#160;Container&#160;&#x27;cs2-spike&#x27;&#160;já&#160;está&#160;rodando.</text><text class="terminal-07-partida-r1" x="1220" y="337.2" textLength="12.2" clip-path="url(#terminal-07-partida-line-13)">
</text><text class="terminal-07-partida-r7" x="24.4" y="361.6" textLength="902.8" clip-path="url(#terminal-07-partida-line-14)">[WATCHER]&#160;Subindo&#160;watcher.py&#160;--mode&#160;matchzy&#160;--player&#160;can1sh&#160;em&#160;paralelo...</text><text class="terminal-07-partida-r1" x="1220" y="361.6" textLength="12.2" clip-path="url(#terminal-07-partida-line-14)">
</text><text class="terminal-07-partida-r7" x="24.4" y="386" textLength="817.4" clip-path="url(#terminal-07-partida-line-15)">[RCON]&#160;Esperando&#160;127.0.0.1:27015&#160;ficar&#160;disponível&#160;(timeout&#160;300s)...</text><text class="terminal-07-partida-r1" x="1220" y="386" textLength="12.2" clip-path="url(#terminal-07-partida-line-15)">
</text><text class="terminal-07-partida-r7" x="24.4" y="410.4" textLength="207.4" clip-path="url(#terminal-07-partida-line-16)">[RCON]&#160;Conectado.</text><text class="terminal-07-partida-r1" x="1220" y="410.4" textLength="12.2" clip-path="url(#terminal-07-partida-line-16)">
</text><text class="terminal-07-partida-r7" x="24.4" y="434.8" textLength="683.2" clip-path="url(#terminal-07-partida-line-17)">[WATCHER]&#160;[WATCHER]&#160;Seguindo&#160;docker&#160;logs&#160;de&#160;cs2-spike...</text><text class="terminal-07-partida-r1" x="1220" y="434.8" textLength="12.2" clip-path="url(#terminal-07-partida-line-17)">
</text><text class="terminal-07-partida-r7" x="24.4" y="459.2" textLength="573.4" clip-path="url(#terminal-07-partida-line-18)">[MATCHZY]&#160;Carregando&#160;match_config.spike.json...</text><text class="terminal-07-partida-r1" x="1220" y="459.2" textLength="12.2" clip-path="url(#terminal-07-partida-line-18)">
</text><text class="terminal-07-partida-r7" x="24.4" y="483.6" textLength="292.8" clip-path="url(#terminal-07-partida-line-19)">&#160;&#160;-&gt;&#160;Match&#160;config&#160;loaded</text><text class="terminal-07-partida-r1" x="1220" y="483.6" textLength="12.2" clip-path="url(#terminal-07-partida-line-19)">
</text><text class="terminal-07-partida-r7" x="24.4" y="508" textLength="854" clip-path="url(#terminal-07-partida-line-20)">======================================================================</text><text class="terminal-07-partida-r1" x="1220" y="508" textLength="12.2" clip-path="url(#terminal-07-partida-line-20)">
</text><text class="terminal-07-partida-r7" x="24.4" y="532.4" textLength="634.4" clip-path="url(#terminal-07-partida-line-21)">Agora&#160;conecte&#160;no&#160;servidor&#160;pelo&#160;client&#160;normal&#160;do&#160;CS2:</text><text class="terminal-07-partida-r1" x="1220" y="532.4" textLength="12.2" clip-path="url(#terminal-07-partida-line-21)">
</text><text class="terminal-07-partida-r7" x="24.4" y="556.8" textLength="463.6" clip-path="url(#terminal-07-partida-line-22)">&#160;&#160;Servidores&#160;-&gt;&#160;Rede&#160;Local&#160;-&gt;&#160;conectar</text><text class="terminal-07-partida-r1" x="1220" y="556.8" textLength="12.2" clip-path="url(#terminal-07-partida-line-22)">
</text><text class="terminal-07-partida-r7" x="24.4" y="581.2" textLength="744.2" clip-path="url(#terminal-07-partida-line-23)">&#160;&#160;(ou,&#160;com&#160;a&#160;console&#160;do&#160;jogo&#160;ligada:&#160;connect&#160;127.0.0.1:27015)</text><text class="terminal-07-partida-r1" x="1220" y="581.2" textLength="12.2" clip-path="url(#terminal-07-partida-line-23)">
</text><text class="terminal-07-partida-r7" x="24.4" y="605.6" textLength="646.6" clip-path="url(#terminal-07-partida-line-24)">Depois&#160;de&#160;conectado,&#160;digite&#160;&#x27;.ready&#x27;&#160;no&#160;chat&#160;do&#160;jogo.</text><text class="terminal-07-partida-r1" x="1220" y="605.6" textLength="12.2" clip-path="url(#terminal-07-partida-line-24)">
</text><text class="terminal-07-partida-r7" x="24.4" y="630" textLength="854" clip-path="url(#terminal-07-partida-line-25)">======================================================================</text><text class="terminal-07-partida-r1" x="1220" y="630" textLength="12.2" clip-path="url(#terminal-07-partida-line-25)">
</text><text class="terminal-07-partida-r1" x="1220" y="654.4" textLength="12.2" clip-path="url(#terminal-07-partida-line-26)">
</text><text class="terminal-07-partida-r1" x="1220" y="678.8" textLength="12.2" clip-path="url(#terminal-07-partida-line-27)">
</text><text class="terminal-07-partida-r1" x="1220" y="703.2" textLength="12.2" clip-path="url(#terminal-07-partida-line-28)">
</text><text class="terminal-07-partida-r1" x="1220" y="727.6" textLength="12.2" clip-path="url(#terminal-07-partida-line-29)">
</text><text class="terminal-07-partida-r1" x="1220" y="752" textLength="12.2" clip-path="url(#terminal-07-partida-line-30)">
</text><text class="terminal-07-partida-r8" x="24.4" y="776.4" textLength="85.4" clip-path="url(#terminal-07-partida-line-31)">Jogador</text><text class="terminal-07-partida-r9" x="122" y="776.4" textLength="12.2" clip-path="url(#terminal-07-partida-line-31)">&gt;</text><text class="terminal-07-partida-r8" x="146.4" y="776.4" textLength="85.4" clip-path="url(#terminal-07-partida-line-31)">Formato</text><text class="terminal-07-partida-r9" x="244" y="776.4" textLength="12.2" clip-path="url(#terminal-07-partida-line-31)">&gt;</text><text class="terminal-07-partida-r8" x="268.4" y="776.4" textLength="61" clip-path="url(#terminal-07-partida-line-31)">Mapas</text><text class="terminal-07-partida-r9" x="341.6" y="776.4" textLength="12.2" clip-path="url(#terminal-07-partida-line-31)">&gt;</text><text class="terminal-07-partida-r8" x="366" y="776.4" textLength="61" clip-path="url(#terminal-07-partida-line-31)">Lados</text><text class="terminal-07-partida-r9" x="439.2" y="776.4" textLength="12.2" clip-path="url(#terminal-07-partida-line-31)">&gt;</text><text class="terminal-07-partida-r8" x="463.6" y="776.4" textLength="73.2" clip-path="url(#terminal-07-partida-line-31)">Resumo</text><text class="terminal-07-partida-r9" x="549" y="776.4" textLength="12.2" clip-path="url(#terminal-07-partida-line-31)">&gt;</text><text class="terminal-07-partida-r10" x="573.4" y="776.4" textLength="85.4" clip-path="url(#terminal-07-partida-line-31)">Partida</text><text class="terminal-07-partida-r1" x="1220" y="776.4" textLength="12.2" clip-path="url(#terminal-07-partida-line-31)">
</text><text class="terminal-07-partida-r11" x="24.4" y="800.8" textLength="292.8" clip-path="url(#terminal-07-partida-line-32)">████████████████████████</text><text class="terminal-07-partida-r12" x="329.4" y="800.8" textLength="109.8" clip-path="url(#terminal-07-partida-line-32)">passo&#160;6/6</text><text class="terminal-07-partida-r9" x="451.4" y="800.8" textLength="12.2" clip-path="url(#terminal-07-partida-line-32)">-</text><text class="terminal-07-partida-r7" x="463.6" y="800.8" textLength="97.6" clip-path="url(#terminal-07-partida-line-32)">&#160;Partida</text><text class="terminal-07-partida-r1" x="1220" y="800.8" textLength="12.2" clip-path="url(#terminal-07-partida-line-32)">
</text><text class="terminal-07-partida-r13" x="0" y="825.2" textLength="36.6" clip-path="url(#terminal-07-partida-line-33)">&#160;q&#160;</text><text class="terminal-07-partida-r7" x="36.6" y="825.2" textLength="61" clip-path="url(#terminal-07-partida-line-33)">Sair&#160;</text><text class="terminal-07-partida-r14" x="1073.6" y="825.2" textLength="12.2" clip-path="url(#terminal-07-partida-line-33)">▏</text><text class="terminal-07-partida-r13" x="1085.8" y="825.2" textLength="24.4" clip-path="url(#terminal-07-partida-line-33)">^p</text><text class="terminal-07-partida-r7" x="1110.2" y="825.2" textLength="97.6" clip-path="url(#terminal-07-partida-line-33)">&#160;palette</text>
    </g>
    </g>
</svg>
